<?xml version="1.0" encoding="UTF-8" standalone="no"?>
<!DOCTYPE svg PUBLIC "-//W3C//DTD SVG 1.1//EN" "http://www.w3.org/Graphics/SVG/1.1/DTD/svg11.dtd">
<svg width="100%" height="100%" viewBox="0 0 4267 4267" version="1.1" xmlns="http://www.w3.org/2000/svg" xmlns:xlink="http://www.w3.org/1999/xlink" xml:space="preserve" xmlns:serif="http://www.serif.com/" style="fill-rule:evenodd;clip-rule:evenodd;stroke-miterlimit:10;">
    <g transform="matrix(1,0,0,1,-5731.4,0)">
        <g id="Artboard1" transform="matrix(1,0,0,1,5731.4,0)">
            <rect x="0" y="0" width="4266.67" height="4266.67" style="fill:none;"/>
            <g id="Layer-1" serif:id="Layer 1" transform="matrix(4.16667,0,0,4.16667,0,0)">
                <g transform="matrix(1,0,0,1,270.221,405.219)">
                    <path d="M0,-175.77C8.99,-157.916 15.905,-131.765 19.865,-100.772C23.197,-74.117 24.392,-53.183 24.203,-21.751C24.14,-8.172 24.266,2.955 24.454,2.955L459.606,2.955L459.417,-21.688C458.851,-88.639 465.766,-136.668 481.043,-170.867C482.928,-175.016 484.437,-178.473 484.437,-178.536C484.437,-178.662 375.115,-178.725 241.464,-178.725L-1.509,-178.725L0,-175.77Z" style="fill:none;fill-rule:nonzero;stroke:white;stroke-width:12px;"/>
                </g>
                <g transform="matrix(1,0,0,1,346.225,377.433)">
                    <path d="M0,-90.463C5.532,-61.608 8.424,-32.564 8.864,-1.509L9.053,13.767L-3.646,13.767L-3.772,0.063C-4.149,-31.936 -7.67,-65.694 -13.642,-94.361C-14.207,-96.938 -14.648,-99.39 -14.648,-99.767C-14.648,-100.144 -12.447,-100.899 -9.744,-101.401C-1.572,-103.036 -2.64,-104.23 0,-90.463Z" style="fill:white;fill-rule:nonzero;"/>
                </g>
                <g transform="matrix(1,0,0,1,686.576,390.446)">
                    <path d="M0,-114.226C3.018,-113.535 5.595,-112.843 5.658,-112.78C5.721,-112.717 5.344,-110.831 4.841,-108.631C3.332,-102.156 -0.251,-80.342 -1.634,-69.026C-3.961,-50.481 -4.903,-37.028 -5.281,-17.665L-5.658,1.32L-11.944,1.194L-18.231,1.068L-17.854,-17.791C-17.162,-50.921 -14.27,-76.444 -7.167,-112.277C-6.789,-114.037 -6.286,-115.546 -6.035,-115.546C-5.784,-115.546 -3.08,-114.98 0,-114.226Z" style="fill:white;fill-rule:nonzero;"/>
                </g>
                <g transform="matrix(1,0,0,1,237.092,362.911)">
                    <path d="M0,-24.077C-0.251,-23.888 -0.44,-18.231 -0.44,-11.504L-0.44,0.629L44.383,0.629L43.943,-11.441C43.691,-18.042 43.377,-23.7 43.188,-24.014C42.811,-24.643 0.566,-24.706 0,-24.077" style="fill:white;fill-rule:nonzero;stroke:white;stroke-width:0.24px;stroke-linejoin:round;stroke-miterlimit:2;"/>
                </g>
                <g transform="matrix(1,0,0,1,744.474,363.414)">
                    <path d="M0,-24.517C-1.069,-24.328 -1.132,-23.763 -2.012,-5.658L-2.326,0.126L20.054,0L42.371,-0.188L42.245,-24.454L21.626,-24.58C10.247,-24.643 0.503,-24.643 0,-24.517" style="fill:white;fill-rule:nonzero;stroke:white;stroke-width:0.24px;stroke-linejoin:round;stroke-miterlimit:2;"/>
                </g>
                <g transform="matrix(1,0,0,1,154.613,413.078)">
                    <path d="M0,142.326C4.023,144.401 7.984,148.424 9.807,152.133C10.876,154.333 11.316,156.533 11.504,160.557C11.756,165.397 11.567,166.403 9.996,169.861C7.858,174.701 2.955,179.353 -1.697,180.925C-11.819,184.446 -22.946,180.045 -27.723,170.678C-29.358,167.409 -29.547,166.403 -29.547,161.06C-29.547,154.145 -28.478,151.379 -23.952,146.727C-19.362,141.886 -15.213,140.251 -8.172,140.566C-4.275,140.692 -2.452,141.069 0,142.326ZM-40.736,-52.87C-43.943,-48.783 -50.481,-40.359 -55.195,-34.136L-63.808,-22.757L-63.808,165.146L-49.538,183.88L-35.267,202.551L44.32,202.551L44.32,-60.225L-34.89,-60.225L-40.736,-52.87Z" style="fill:none;fill-rule:nonzero;stroke:white;stroke-width:12px;"/>
                </g>
                <g transform="matrix(1,0,0,1,142.04,582.562)">
                    <path d="M0,-15.968C-2.64,-14.899 -4.275,-12.322 -4.526,-8.927C-4.841,-5.155 -3.52,-2.389 -0.629,-0.503C1.509,0.88 6.035,0.88 8.172,-0.503C13.642,-4.087 13.516,-12.762 7.921,-15.654C5.909,-16.66 2.075,-16.848 0,-15.968" style="fill:white;fill-rule:nonzero;stroke:white;stroke-width:0.24px;stroke-linejoin:round;stroke-miterlimit:2;"/>
                </g>
                <g transform="matrix(1,0,0,1,885.732,594.757)">
                    <path d="M0,-221.347C4.526,-219.901 10.31,-213.992 12.196,-208.9C15.905,-199.093 11.379,-187.966 1.446,-182.685C-0.88,-181.428 -2.2,-181.239 -7.544,-181.239C-13.327,-181.239 -14.082,-181.365 -17.162,-183.062C-29.421,-189.915 -32.061,-206.385 -22.443,-216.318C-16.659,-222.353 -8.675,-224.113 0,-221.347ZM-60.853,-110.705L-60.665,20.557L18.734,20.557L33.13,2.012L47.463,-16.533L47.212,-24.705C47.023,-29.232 46.897,-71.666 46.897,-119.003L46.834,-205.128L41.931,-211.414C39.228,-214.872 32.878,-223.17 27.723,-229.834L18.482,-241.904L-61.105,-241.904L-60.853,-110.705Z" style="fill:none;fill-rule:nonzero;stroke:white;stroke-width:12px;"/>
                </g>
                <g transform="matrix(1,0,0,1,874.291,399.184)">
                    <path d="M0,-13.956C-4.212,-12.133 -5.972,-5.532 -3.395,-1.32C-2.075,0.817 1.32,2.703 3.898,2.703C6.475,2.703 9.87,0.817 11.19,-1.32C11.881,-2.452 12.384,-4.463 12.384,-6.098C12.384,-12.699 6.161,-16.659 0,-13.956" style="fill:white;fill-rule:nonzero;stroke:white;stroke-width:0.24px;stroke-linejoin:round;stroke-miterlimit:2;"/>
                </g>
                <g transform="matrix(1,0,0,1,289.207,783.351)">
                    <path d="M0,-214.746C-7.732,-167.094 -15.088,-133.273 -24.832,-100.458C-37.405,-57.898 -51.172,-25.774 -68.146,0.566L-69.026,2.012L514.361,2.012L508.64,-7.292C488.901,-39.29 469.727,-92.788 456.714,-152.447C454.388,-163.071 448.541,-194.692 446.09,-209.528L444.958,-216.443L222.668,-216.632L0.314,-216.758L0,-214.746Z" style="fill:none;fill-rule:nonzero;stroke:white;stroke-width:10px;"/>
                </g>
                <g transform="matrix(1,0,0,1,631.38,612.799)">
                    <rect x="-238.761" y="-5.658" width="238.761" height="11.316" style="fill:white;fill-rule:nonzero;"/>
                </g>
                <g transform="matrix(1,0,0,1,649.046,660.576)">
                    <path d="M0,-6.286L0,6.286L-274.72,6.286L-274.72,0.44C-274.72,-2.829 -274.531,-5.658 -274.28,-5.846C-274.091,-6.098 -212.232,-6.286 -136.92,-6.286L0,-6.286Z" style="fill:white;fill-rule:nonzero;"/>
                </g>
                <g transform="matrix(1,0,0,1,668.862,715.221)">
                    <path d="M0,-12.863C0.138,-12.725 0.277,-9.682 0.346,-6.155L0.484,0.345L-156.766,0.552C-243.275,0.622 -314.293,0.483 -314.501,0.207C-314.777,-0.139 -314.777,-3.251 -314.639,-6.709L-314.362,-13.14L-250.328,-13.278C-177.304,-13.485 -0.346,-13.14 0,-12.863Z" style="fill:white;fill-rule:nonzero;"/>
                </g>
                <g transform="matrix(1,0,0,1,227.222,603.244)">
                    <path d="M0,-12.762L0,12.699L20.368,12.51L40.799,12.321L41.428,9.052C43.503,-1.509 45.263,-11.001 45.263,-11.819C45.263,-12.636 42.308,-12.762 22.631,-12.762L0,-12.762Z" style="fill:white;fill-rule:nonzero;stroke:white;stroke-width:0.24px;stroke-linejoin:round;stroke-miterlimit:2;"/>
                </g>
                <g transform="matrix(1,0,0,1,751.515,614.874)">
                    <path d="M0,-23.323C0,-22.694 1.006,-17.099 2.2,-10.876C3.395,-4.652 4.401,0.503 4.401,0.566C4.401,0.629 13.579,0.817 24.832,0.88L45.263,1.069L45.263,-24.392L22.631,-24.392C1.509,-24.392 0,-24.329 0,-23.323" style="fill:white;fill-rule:nonzero;stroke:white;stroke-width:0.24px;stroke-linejoin:round;stroke-miterlimit:2;"/>
                </g>
                <g transform="matrix(1,0,0,1,164.985,815.539)">
                    <rect x="0" y="-10.687" width="694.029" height="21.374" style="fill:white;fill-rule:nonzero;stroke:white;stroke-width:0.24px;stroke-linejoin:round;stroke-miterlimit:2;"/>
                </g>
            </g>
            <g transform="matrix(4.16667,0,0,4.16667,2998.25,1985.45)">
                <path d="M0,22.38C0.126,25.775 0.063,28.729 -0.063,28.855C-0.189,28.981 -93.794,29.107 -208.02,29.107L-415.663,29.107L-415.663,16.534L-341.608,16.408C-300.934,16.282 -207.454,16.219 -133.902,16.219L-0.189,16.219L0,22.38ZM21.123,-22.757L20.934,-16.785L-207.706,-16.408L-436.408,-16.093L-436.408,-28.729L21.311,-28.729L21.123,-22.757ZM-507.446,-55.133L-507.446,77.513L-207.957,77.513C85.559,77.513 91.531,77.513 91.846,76.318C92.286,74.621 92.349,-49.223 91.909,-52.492L91.531,-55.133L-507.446,-55.133Z" style="fill:white;fill-rule:nonzero;stroke:rgb(128,128,128);stroke-width:0.24px;stroke-linejoin:round;stroke-miterlimit:2;"/>
            </g>
        </g>
    </g>
</svg>
